<?xml version="1.0" encoding="UTF-8"?>
<svg width="324px" height="298px" viewBox="0 0 324 298" version="1.1" xmlns="http://www.w3.org/2000/svg" xmlns:xlink="http://www.w3.org/1999/xlink">
    <!-- Generator: Sketch 52.2 (67145) - http://www.bohemiancoding.com/sketch -->
    <title>Group 9</title>
    <desc>Created with Sketch.</desc>
    <defs>
        <polygon id="path-1" points="0.0239148799 0.290147801 93.5792212 0.290147801 93.5792212 132 0.0239148799 132"></polygon>
        <polygon id="path-3" points="8.17584915e-05 0.404651163 323.58927 0.404651163 323.58927 231.382952 8.17584915e-05 231.382952"></polygon>
    </defs>
    <g id="Page-1" stroke="none" stroke-width="1" fill="none" fill-rule="evenodd">
        <g id="Desktop-HD" transform="translate(-557.000000, -295.000000)">
            <g id="Group-9" transform="translate(557.000000, 295.000000)">
                <g id="Group-3" transform="translate(52.000000, 166.000000)">
                    <mask id="mask-2" fill="white">
                        <use xlink:href="#path-1"></use>
                    </mask>
                    <g id="Clip-2"></g>
                    <path d="M25.9551954,0.559143689 C29.6887144,0.15879204 65.2742085,0.221910544 68.1641559,0.638492664 C68.242794,1.4464095 68.3964956,2.31383808 68.40007,3.18126665 C68.423304,8.63109854 68.4125806,14.0791271 68.4125806,19.528959 L68.4125806,74.7017442 C68.4125806,82.7610754 68.3250064,90.8204065 68.4608358,98.8761309 C68.5090909,101.689413 68.9308767,104.529745 69.5063641,107.290729 C70.4214247,111.69099 72.8073739,114.818061 79.0126291,115.369897 C82.2457243,115.656636 85.5252874,115.429409 88.7816166,115.405965 C90.2328456,115.395145 91.6805002,115.319403 93.2336012,115.708934 C93.7930035,117.541174 93.4927493,119.35538 93.5427916,121.131715 C93.5910468,122.834111 93.5696001,124.536508 93.5481533,126.238904 C93.5267066,128.029666 93.6696848,129.833052 93.4212601,131.344289 C93.0995591,131.668898 93.0316445,131.771691 92.9387086,131.822186 C92.8439855,131.874484 92.722454,131.896125 92.6134331,131.897928 C63.0258758,131.935799 33.4383185,131.970064 3.84897393,132.000721 C2.94999832,132.000721 2.0510227,131.966457 1.15383431,131.921372 C0.94472865,131.910552 0.742771901,131.784315 0.535453469,131.710376 C-0.0382466763,129.463358 -0.166927083,120.078538 0.342432859,115.681883 C0.91970746,115.588107 1.55238612,115.404162 2.18685202,115.396948 C5.33594752,115.364487 8.48683025,115.378914 11.637713,115.377111 C12.4240932,115.377111 13.2122607,115.396948 14.0004282,115.369897 C19.7392169,115.173328 23.583544,111.911004 24.3842221,106.176237 C24.9150288,102.367486 25.2653255,98.5010267 25.284985,94.6562081 C25.4440482,64.6911496 25.4994523,34.7224843 25.6031115,4.75742584 C25.606686,3.41751019 25.3850697,2.04513359 25.9551954,0.559143689" id="Fill-1" fill="#FEFEFE" mask="url(#mask-2)"></path>
                </g>
                <path d="M177.277296,297.903637 C176.846561,293.579983 176.936298,284.449866 177.417285,281.724162 C178.662826,281.392682 180.012461,281.535002 181.340559,281.529598 C185.068208,281.513384 188.801241,281.625078 192.494791,280.960317 C193.381386,280.801783 194.262597,280.601814 195.129451,280.356807 C198.476617,279.403801 200.463381,277.11947 201.414586,273.831692 C202.209651,271.07356 202.241956,268.232559 202.363997,265.402367 C202.41066,264.271011 202.37656,263.13425 202.37656,261.999291 C202.37656,231.821985 202.374766,201.64468 202.385534,171.467374 C202.385534,170.127042 202.220419,168.761488 202.663717,167.304056 C203.230851,167.195964 203.76209,167.012209 204.291535,167.012209 C217.288951,166.995995 230.286368,166.997797 243.283785,167.006804 C243.721698,167.006804 244.159612,167.109491 244.776998,167.186957 C244.890066,167.851719 245.060565,168.484053 245.094665,169.125395 C245.148507,170.143255 245.114407,171.16652 245.114407,172.187984 C245.116202,201.684313 245.087486,231.182445 245.153891,260.678775 C245.162865,264.060233 245.462584,267.483126 246.054844,270.810538 C247.30218,277.823866 251.492869,280.025326 256.81962,280.866637 C259.486585,281.286392 262.214571,281.327827 264.915636,281.518789 C267.026235,281.668315 269.185293,281.333232 271.329992,282.118696 C272.26325,287.222409 271.947378,292.304505 271.952762,297.548737 C271.209745,297.709072 270.590564,297.90724 269.95882,297.961286 C269.17273,298.031545 268.377665,297.984705 267.58619,297.984705 C238.879524,297.984705 210.172857,297.986507 181.464395,297.981102 C180.129118,297.981102 178.793841,297.934263 177.277296,297.903637" id="Fill-4" fill="#FEFEFE"></path>
                <g id="Group-8">
                    <mask id="mask-4" fill="white">
                        <use xlink:href="#path-3"></use>
                    </mask>
                    <g id="Clip-7"></g>
                    <path d="M52.1214846,16.2757891 C52.0838095,10.9721612 52.0927798,5.91312248 52.1178965,0.658052713 C53.050803,0.557339535 53.6912791,0.454827907 54.3353434,0.426052713 C55.1247258,0.388285271 55.9176963,0.411665116 56.7088728,0.411665116 C84.9579984,0.411665116 113.208918,0.409866667 141.459838,0.415262016 C142.796406,0.415262016 144.131179,0.469215504 145.399573,0.497990698 C146.050814,3.00682791 146.20869,11.1448124 145.744031,16.7200062 C145.175317,16.8476961 144.552781,17.1012775 143.924864,17.1102698 C140.760158,17.155231 137.595452,17.0994791 134.43254,17.155231 C133.085208,17.1804093 131.721729,17.2919132 130.39772,17.5383008 C125.343878,18.4806884 122.171996,21.5920062 121.231914,26.7175876 C120.847987,28.8163783 120.725991,30.9907039 120.722403,33.1290605 C120.688316,57.3721612 120.700875,81.6134636 120.700875,105.854766 C120.700875,114.577247 120.697286,123.299727 120.706257,132.022208 C120.708051,133.13365 120.785195,134.245091 120.833634,135.536378 C121.628399,135.644285 122.268875,135.802549 122.911145,135.807944 C126.187082,135.834921 129.464813,135.82413 132.742544,135.82413 C154.551027,135.82413 176.35951,135.827727 198.169787,135.811541 C199.382565,135.811541 200.636607,136.025557 201.861944,135.538177 C202.405541,134.284657 202.201019,133.027541 202.202813,131.811789 C202.21896,117.992502 202.213578,104.171417 202.213578,90.3503318 C202.213578,72.7938667 202.226136,55.2338047 202.201019,37.6755411 C202.193843,34.0570605 202.131051,30.4331845 201.356021,26.8614636 C200.397998,22.4588589 197.84327,19.5813395 193.458609,18.4896806 C191.712998,18.0562543 189.917153,17.7649054 188.124896,17.5868589 C185.656282,17.3440682 183.169727,17.2865178 180.693937,17.1102698 C179.587008,17.0329364 178.489048,16.8620837 177.457469,16.743386 C176.865432,14.159014 176.761377,5.02288992 177.261918,0.868471318 C177.832426,0.773153488 178.462138,0.62568062 179.10082,0.575324031 C179.773589,0.519572093 180.455328,0.557339535 181.133479,0.557339535 C209.8365,0.557339535 238.53952,0.555541085 267.240747,0.564533333 C268.455319,0.564533333 269.668098,0.654455814 270.818084,0.701215504 C271.367064,3.76037829 271.37424,13.8298977 270.843201,16.8854636 C269.716537,17.2865178 268.475054,17.1066729 267.260481,17.1336496 C263.763876,17.2091845 260.254713,16.9250295 256.776048,17.5149209 C256.219892,17.6102388 255.64759,17.6300217 255.09861,17.7487194 C250.247497,18.8062078 246.84777,21.5326574 245.916658,26.5557271 C245.321033,29.7623628 244.983751,33.0643163 244.976575,36.3249054 C244.904813,64.4184868 244.935312,92.5120682 244.935312,120.60565 C244.935312,124.342828 244.924548,128.081805 244.944282,131.818983 C244.94787,132.702022 245.059101,133.58506 245.109335,134.308037 C245.468145,134.590394 245.624227,134.806208 245.823367,134.856564 C251.096083,136.212595 256.436972,137.041681 261.901651,136.714363 C266.860408,136.417619 270.936492,134.291851 273.453545,130.011541 C280.468284,118.078828 281.691827,105.73427 275.251184,93.127138 C272.664163,88.0663008 268.706486,84.2320062 263.799757,81.3760682 C262.237139,80.4660527 260.701431,79.5128744 259.18187,78.5327194 C257.332204,77.3403473 256.402885,75.583262 256.350858,73.4035411 C256.307801,71.6158822 256.094308,69.7940527 256.795782,68.0261767 C258.426575,67.5891535 260.007134,67.8823008 261.551811,68.0261767 C268.297443,68.6556341 275.044868,69.2886884 281.699003,70.6411225 C289.49236,72.2291535 297.000463,74.603107 303.860914,78.7503318 C308.24378,81.3994481 312.140459,84.6240682 315.624506,88.3918202 C325.588664,99.1537426 326.074852,113.678022 317.806072,125.501029 C313.550583,131.583386 307.870618,135.973402 301.198542,139.104502 C296.173406,141.46227 290.884544,143.104254 285.579535,144.690487 C280.927561,146.080688 276.263029,147.42413 271.609261,148.812533 C270.678148,149.091293 269.779329,149.483355 268.365617,150.008502 C269.309287,150.423944 269.76677,150.709898 270.265517,150.828595 C273.229289,151.546177 276.22356,152.14506 279.164009,152.938177 C281.991433,153.702518 284.811681,154.540595 287.556579,155.556719 C291.578841,157.049433 295.549076,158.689619 299.508546,160.342394 C303.475193,162.000564 307.330608,163.89613 310.873859,166.363603 C320.906192,173.348781 324.743666,183.083789 322.944233,194.980533 C321.354704,205.483479 315.592213,213.31213 306.474846,218.662518 C297.807786,223.748533 288.44284,226.971355 278.636558,228.956843 C271.6577,230.368626 264.596316,231.147355 257.488286,231.382952 C254.93894,227.329247 255.844935,222.304378 259.628589,219.728998 C260.556113,219.095944 261.575134,218.572595 262.604919,218.121184 C271.385004,214.277898 276.426287,207.459975 278.313629,198.188967 C279.641227,191.667789 279.668137,185.143014 277.945849,178.668595 C275.819898,170.687076 271.123073,164.69644 263.849991,160.844161 C256.691727,157.053029 249.095716,154.571169 240.995576,153.851789 C238.86245,153.662952 236.709588,153.63058 234.563904,153.626983 C204.6194,153.576626 174.67669,153.52627 144.732186,153.511882 C132.640283,153.504688 120.551968,153.576626 108.460065,153.616192 C94.6763721,153.66475 80.892679,153.720502 67.1071918,153.756471 C65.4136078,153.761867 63.7182297,153.608998 62.0264397,153.661153 C60.2288006,153.713309 58.4060449,153.770859 56.6406988,154.090983 C53.581842,154.643107 52.10175,156.218549 51.6352968,159.274115 C51.4487155,160.493464 51.4361571,161.763169 51.5079192,162.998704 C52.1178965,173.634735 51.9564319,184.279758 51.9420795,194.922983 C51.9366973,198.201557 51.7016767,201.481929 51.7088529,204.762301 C51.714235,207.81427 51.8972282,210.866239 52.0156356,213.918208 C52.0389582,214.484719 52.1125143,215.047634 52.1914526,215.60875 C52.6489356,218.930487 54.3819887,221.275665 57.562841,222.403293 C59.3694503,223.04534 61.2262929,223.536316 63.0651951,224.084843 C63.8061382,224.306053 64.5542574,224.500285 65.458459,224.752068 C65.7939466,226.822084 65.6880976,228.79858 65.5535437,230.721122 C64.3371772,231.508843 63.1782203,231.235479 62.0838493,231.239076 C54.1738788,231.262456 46.2639084,231.251665 38.3539379,231.251665 C27.1662365,231.251665 15.978535,231.255262 4.79083354,231.248068 C3.56908488,231.24627 2.34733621,231.188719 1.03588499,231.15275 C0.377468311,228.965836 0.833157242,226.960564 0.675280762,224.85458 C1.47004531,224.609991 2.08361072,224.386983 2.71152854,224.232316 C4.68498454,223.750332 6.70149776,223.412223 8.63189654,222.80075 C11.080776,222.027417 12.6344241,220.320688 13.0255272,217.698549 C13.1923739,216.58351 13.3968957,215.463076 13.4309827,214.339045 C13.5188912,211.396781 13.5565663,208.450921 13.5583603,205.508657 C13.5655365,169.144006 13.5655365,132.781153 13.5583603,96.4200992 C13.5565663,92.5696186 13.4865983,88.719138 13.4471292,84.8686574 C13.4453351,84.6420527 13.4560994,84.4154481 13.439953,84.1888434 C12.9788819,77.8618977 10.8601078,76.6461457 6.16148844,75.5239132 C4.41408285,75.1066729 2.63438435,74.8261147 0.863656107,74.479014 C-0.279154321,72.3568434 -0.196627979,70.3227969 0.580196064,68.283355 C3.21027469,67.8966884 60.8656887,67.7887814 65.1929395,68.1556651 C66.1348162,70.0080682 65.6988619,72.0295256 65.7508893,74.0419907 C64.5470812,74.907045 63.129781,74.8854636 61.8739453,75.3206884 C60.383089,75.8386419 58.833029,76.1947349 57.3654954,76.7720372 C54.2420528,77.9985798 52.4587662,80.3401612 52.1753061,83.6978667 C51.9366973,86.5160372 51.7178231,89.3449984 51.7088529,92.1685643 C51.6604135,105.763045 51.6837362,119.353929 51.6945005,132.948409 C51.6945005,133.835045 51.8039376,134.721681 51.8685234,135.732409 C54.7677097,136.410425 57.5807815,135.991386 60.3615604,136.065122 C63.1836025,136.140657 66.0110267,136.092099 68.8348628,136.07951 C71.6461406,136.068719 74.4574184,136.038146 77.3027831,136.014766 C77.473218,135.367324 77.6597993,134.944688 77.6813279,134.514859 C77.7315613,133.385433 77.7172089,132.250611 77.7172089,131.117588 C77.7190029,102.685898 77.7387375,74.2524093 77.6956803,45.8207194 C77.6902981,41.1843163 77.4552775,36.5443163 77.2220508,31.9115101 C77.1431126,30.3396651 76.841712,28.7606264 76.4703435,27.2283473 C75.5769062,23.5523163 73.3540771,20.9032 69.7587991,19.7414016 C66.9798142,18.8403783 64.0913922,18.2450915 61.2173227,17.6839752 C59.0052579,17.2541457 56.7393716,17.1066729 54.5021901,16.8009364 C53.8419794,16.711014 53.1961211,16.5167814 52.1214846,16.2757891" id="Fill-6" fill="#FEFEFE" mask="url(#mask-4)"></path>
                </g>
            </g>
        </g>
    </g>
</svg>