<svg id="Layer_1" data-name="Layer 1" xmlns="http://www.w3.org/2000/svg" viewBox="0 0 1920 1080"><defs><style>.cls-1{fill:#e2e2e2;}.cls-2{fill:#191919;}.cls-3{fill:#333;}.cls-4{fill:#939393;}.cls-5{fill:#777;}</style></defs><title>nagaBG</title><rect class="cls-1" width="1920" height="1080"/><path class="cls-2" d="M133.84,430.45c7.62-54.12,104-81.58,130.16-88.45l48-14L546,198l222,94a413.74,413.74,0,0,1,92,0c64.77,7.28,85.19,25.36,144,32a353.47,353.47,0,0,0,122-8c69.27-17.19,119.33-53.89,150-82a1528.24,1528.24,0,0,1,539.24,268.64A491.16,491.16,0,0,1,1746,618c-333,411.66-1222.19,94.78-1476-48C221.21,542.56,125.8,487.62,133.84,430.45Z"/><path class="cls-3" d="M0,376c84.35,40.64,218.4,93.21,388,106,165.87,12.51,229.52-23.3,414-24,219.26-.84,283.54,49.16,480,74,149.07,18.85,364.11,21.92,638-56v604H0Z"/><path class="cls-4" d="M1920,1080H0V652a202,202,0,0,1,36-24c89.8-46.76,192.77-12.32,220-4,160.63,49.07,326.4-4.24,644,50C1347.72,750.46,1758.86,982.88,1920,1080Z"/><path class="cls-5" d="M638,438c-4.38,27.05-8.83,27.22-10,48-1.93,34.14,9.09,50.64-2,66-4.3,6-9.32,8.1-24,14-66,26.53-83.07,30.68-98,48-5.05,5.86-18.91,21.93-14,33.18,5.75,13.18,32.31,8.39,88,22.82,25.73,6.66,34.54,11.44,40,20,8.09,12.7,8,32.38,0,46-23.93,41-108.89,10.38-128,44-11.41,20.08,4.37,56.56,26,78,80.23,79.51,307,17.5,444-106,44.88-40.45,67.71-54.11,64-70-6.36-27.21-96.92,10.68-178-38-14.14-8.49-88.5-55.87-100-130-4.75-30.61,2-61-20-80-13.15-11.37-25.2-8.8-46-22s-33.11-31.34-40-44A272.63,272.63,0,0,1,638,438Z"/></svg>