<svg id="Layer_1" data-name="Layer 1" xmlns="http://www.w3.org/2000/svg" viewBox="0 0 1952 1098"><defs><style>.cls-1{fill:#8c8c8c;}.cls-2{fill:#aaa9a9;}.cls-3{fill:#5e5d5d;}.cls-4{fill:#232323;}.cls-5{fill:#c1c1c1;}</style></defs><title>Child BG</title><rect class="cls-1" width="1952" height="1098"/><path class="cls-2" d="M96.7,149.53a668.38,668.38,0,0,0,136,12.49c59.13-1,94.73-10.11,136-17.49,119.84-21.45,235.28-18.76,396.63-15,114.08,2.66,111.66,8.47,170,5,126.65-7.52,148.16-35.47,249.31-35,58.49.28,46.77,9.6,198.31,27.48,144.66,17.08,187.11,12.33,204,10,60.52-8.35,66.43-23.44,124.65-32.49,0,0,72.28-7.85,187,7.5L1936,93V-9H-16V111.67C2.75,121.53,39.16,138,96.7,149.53Z" transform="translate(16 9)"/><path class="cls-3" d="M-16,342.12C170.61,376,321.19,381.3,424.18,379.86,603.44,377.37,651,354.36,811.56,362c46.52,2.21,240.48,11.42,387.38,73.5,88.18,37.27,61.4,52.17,225.22,172.84,119.41,88,166.59,104.31,216.21,113.24,113.13,20.35,233,1,295.63-11.92V1089H-16Z" transform="translate(16 9)"/><ellipse class="cls-4" cx="976" cy="947.42" rx="228.39" ry="20.52"/><path class="cls-5" d="M-16,310.33c89.25-6.82,226.08-12.49,386.13,2,117.1,10.59,133.21,21.71,229.72,25.83,183,7.8,219.55-28.16,414.41-29.8,42.61-.36,298.58-2.52,373.86,57.61,36.89,29.46-6.35,44.52,27,97.34,9.77,15.47,44.95,71.14,153.15,103.31,153.62,45.67,346.47,11.83,367.7,7.94v143a324.79,324.79,0,0,1-43.39,11.92c-103,21.16-217.39-.9-263.08-10-110.84-22.2-125.33-45.05-214.38-73.39-71.84-22.86-109.82-19.68-450.44-55.62-257.35-27.16-409.47-35.6-427.92-71.52-13.53-26.35,53-41,45.05-65.56-9.4-28.91-121-63.93-597.84-85.42Z" transform="translate(16 9)"/></svg>