<svg id="Layer_1" data-name="Layer 1" xmlns="http://www.w3.org/2000/svg" viewBox="0 0 1920 1081"><defs><style>.cls-1{fill:#e2e2e2;}.cls-2{fill:#3b3d3c;}.cls-3{fill:#2d2d2d;}.cls-4{fill:#232323;}.cls-5{fill:#707070;}.cls-6{fill:#e0db70;}.cls-7{fill:#191919;}.cls-8{fill:#296634;}.cls-9{fill:#205127;}.cls-10{fill:#666;}.cls-11{fill:#fff;}.cls-12{fill:#bc002d;}.cls-13{fill:#c6c6c6;}</style></defs><title>POWBg</title><rect class="cls-1" y="1" width="1920" height="1080"/><polygon class="cls-2" points="1018 466 0 466 0 1081 1920 1081 1920 466 1018 466"/><polygon class="cls-3" points="1920 466 1018 466 1018 75 832 75 907 0 1920 0 1920 466"/><path class="cls-4" d="M1614.42,764.06V922.87c-2.7-1.09-54.52-21.14-86.8,7.22a60.16,60.16,0,0,0-15.09,20.76h168.74V758.29Z" transform="translate(0 1)"/><polygon class="cls-5" points="1502.8 1 1545.49 677 1920 1056 1920 1 1502.8 1"/><circle class="cls-6" cx="1576.35" cy="293.55" r="127.6" transform="translate(254.13 1201.63) rotate(-45)"/><path class="cls-7" d="M1657.62,764.06V922.87c-2.7-1.09-54.52-21.14-86.8,7.22a60.16,60.16,0,0,0-15.09,20.76h168.74V758.29Z" transform="translate(0 1)"/><rect class="cls-8" x="1472.45" y="335.26" width="306" height="506" transform="translate(-71.07 257.67) rotate(-8.84)"/><path class="cls-8" d="M1465,268.61c80.07-11.5,156.18-25.44,228.11-41-1.88-10.53-8.63-40.46-35-65.35-24.38-23-51.39-28.34-61.84-30.27-43.61-8-103.24,4.45-120.23,39.84-10,20.84,1.28,36-13.09,51.46-12.29,13.19-26.68,8.61-50.91,18.39-13.73,5.53-32.44,16.41-51.12,40.18Q1411.91,276.2,1465,268.61Z" transform="translate(0 1)"/><path class="cls-9" d="M1632.52,331.13c2.78-.3,7.35-.82,13-1.63,15.22-2.19,21-4,22.74-3.93,8.92.43,18.64,53.27,24.87,258.43l-50.88,18Q1637.37,466.56,1632.52,331.13Z" transform="translate(0 1)"/><polygon class="cls-7" points="832 75 1010 23 1502.8 23 1502.8 1 907 0 832 75"/><path class="cls-9" d="M1668.24,325.57" transform="translate(0 1)"/><rect class="cls-10" y="151.85" width="1018" height="314.15"/><rect id="_2" data-name="2" class="cls-11" x="1646.27" y="425.67" width="33.09" height="22.06" transform="translate(-39.66 198.42) rotate(-6.71)"/><circle id="_1" data-name="1" class="cls-12" cx="1662.81" cy="437.7" r="6.62"/><path class="cls-13" d="M1435.4,361.77l302.37-47q-5.07-14-10.15-28.06l-300,56.6Q1431.51,352.54,1435.4,361.77Z" transform="translate(0 1)"/></svg>