<svg id="Layer_1" data-name="Layer 1" xmlns="http://www.w3.org/2000/svg" viewBox="0 0 1922.81 1081"><defs><style>.cls-1{fill:#e2e2e2;}.cls-2{fill:#8c8c8c;}.cls-3{fill:#727070;}.cls-4{fill:#222322;}.cls-5{fill:#afafaf;}.cls-6{fill:#6b6868;}</style></defs><title>HulaBG</title><rect class="cls-1" y="1" width="1920" height="1080"/><path class="cls-2" d="M0,1080V829.85a403.44,403.44,0,0,0,85.2-3c60.11-8.83,95.2-29.65,115.21-39,77.89-36.42,173.27-14.24,298.5-18,207.6-6.23,205.91-75,408.48-90,67.7-5,186.53,12.67,424.18,48,162.66,24.18,254.81,43.09,413.72,51,73.86,3.68,134.86,3.62,174.71,3V1080Z" transform="translate(0 1)"/><path class="cls-3" d="M0,789.58l643.9-24.17q5.69-154.77,11.38-309.53l135.45-75.15H168L0,287.51Z" transform="translate(0 1)"/><path class="cls-4" d="M0,903.06c77.3,19.62,181.29,37.61,255.59,12,58.82-20.27,45.62-49.46,113.54-84,104.38-53.09,262.37-48.66,281.17-48,124.72,4.41,181.58,39.87,248.73,18,29.58-9.63,23.12-18,75.7-42,43.8-20,90.54-41.32,135.18-36,52.82,6.3,51.73,43.84,97.33,48,49.61,4.54,118.72-33.71,129.77-75s-37.4-81.54-91.93-102c-24.69-9.27-87.32-28.29-373.09,0-196.26,19.43-257.69,37.41-308.2,15C514.13,587,545,557,498.9,498c-56.44-72.18-186.09-133.78-248.72-120-21.67,4.76-26.07,16.51-91.92,141-25.57,48.33-38.88,72.55-64.89,75C57.18,597.46,17.1,560.4,0,543Z" transform="translate(0 1)"/><path class="cls-5" d="M1253,718.89c60.06-36.16,125.42-81.84,185.81-138.07,129.74-120.77,178.94-236.5,199.23-315,35.3,4.49,110.11,11,193.83-6a452.61,452.61,0,0,0,88.1-27V799.85a2364,2364,0,0,1-357.32-18C1433.94,765.38,1329.62,740.78,1253,718.89Z" transform="translate(0 1)"/><path class="cls-6" d="M1623.67,316.82c-62,17.61-98,52.05-173.23,51-67.32-.95-139.16-41.46-135.18-75,5-42.15,127.4-53.41,124.37-84-4.06-40.9-242.65-41.62-248.73-87-3-22.22,49.83-58.58,262.77-121.45H1512L1558.58,0c41.2,80.34,61.77,106.83,70.3,103.78h0c8.48-3.11,9.11-31.18-5.9-104.77l173,1h126.81q-1.39,34-2.81,68V389C1777.87,299.67,1683.7,299.75,1623.67,316.82Z" transform="translate(0 1)"/></svg>