<svg id="Layer_1" data-name="Layer 1" xmlns="http://www.w3.org/2000/svg" viewBox="0 0 1584.77 940.22"><defs><style>.cls-1{fill:#fff;}</style></defs><title>banlieuesmobile</title><polygon class="cls-1" points="11.87 903.86 29.3 13.95 29.32 12.75 30.52 12.75 117.58 12.64 118.91 12.64 118.92 13.97 119.47 458.94 119.63 681.42 119.58 903.9 117.58 901.9 204.64 901.9 202.64 903.9 202.64 13.87 202.64 11.87 204.64 11.87 322.8 11.87 324.8 11.87 324.8 13.87 324.8 903.93 322.8 901.93 428.51 901.93 426.51 903.93 426.51 13.96 426.51 11.96 428.51 11.96 557.55 11.96 559.55 11.96 559.55 13.96 559.55 903.87 557.55 901.87 688.14 901.87 686.14 903.87 686.14 13.97 686.14 11.97 688.14 11.97 846.72 11.97 848.72 11.97 848.72 13.97 848.72 903.88 846.72 901.88 1009.96 901.88 1007.96 903.88 1007.96 13.97 1007.96 11.97 1009.96 11.97 1202.74 11.97 1204.74 11.97 1204.74 13.97 1204.74 903.87 1202.74 901.87 1404.84 901.87 1402.84 903.87 1402.86 458.92 1403.42 13.97 1403.42 12.55 1404.84 12.55 1583.57 12.77 1584.77 12.78 1584.77 13.97 1583.57 903.86 1582.37 13.97 1583.57 15.18 1404.84 15.4 1406.27 13.97 1406.82 458.92 1406.84 903.87 1406.84 905.87 1404.84 905.87 1202.74 905.87 1200.74 905.87 1200.74 903.87 1200.74 13.97 1202.74 15.97 1009.96 15.97 1011.96 13.97 1011.96 903.88 1011.96 905.88 1009.96 905.88 846.72 905.88 844.72 905.88 844.72 903.88 844.72 13.97 846.72 15.97 688.14 15.97 690.14 13.97 690.14 903.87 690.14 905.87 688.14 905.87 557.55 905.87 555.55 905.87 555.55 903.87 555.55 13.96 557.55 15.96 428.51 15.96 430.51 13.96 430.51 903.93 430.51 905.93 428.51 905.93 322.8 905.93 320.8 905.93 320.8 903.93 320.8 13.87 322.8 15.87 204.64 15.87 206.64 13.87 206.64 903.9 206.64 905.9 204.64 905.9 117.58 905.9 115.58 905.9 115.58 903.9 115.53 681.42 115.69 458.94 116.25 13.97 117.58 15.31 30.52 15.2 31.74 14 11.87 903.86"/><polygon class="cls-1" points="0 903.86 17.43 13.95 17.46 12.75 18.66 12.75 105.72 12.64 107.05 12.64 107.05 13.97 107.61 458.94 107.77 681.42 107.72 903.9 105.72 901.9 192.78 901.9 190.78 903.9 190.78 13.87 190.78 11.87 192.78 11.87 310.93 11.87 312.93 11.87 312.93 13.87 312.93 903.93 310.93 901.93 416.65 901.93 414.65 903.93 414.65 13.96 414.65 11.96 416.65 11.96 545.69 11.96 547.69 11.96 547.69 13.96 547.69 903.87 545.69 901.87 676.28 901.87 674.28 903.87 674.28 13.97 674.28 11.97 676.28 11.97 834.85 11.97 836.85 11.97 836.85 13.97 836.85 903.88 834.85 901.88 998.09 901.88 996.09 903.88 996.09 13.97 996.09 11.97 998.09 11.97 1190.87 11.97 1192.87 11.97 1192.87 13.97 1192.87 903.87 1190.87 901.87 1392.98 901.87 1390.98 903.87 1391 458.92 1391.55 13.97 1391.56 12.55 1392.98 12.55 1571.7 12.77 1572.9 12.78 1572.9 13.97 1571.7 903.86 1570.5 13.97 1571.7 15.18 1392.98 15.4 1394.4 13.97 1394.96 458.92 1394.98 903.87 1394.98 905.87 1392.98 905.87 1190.87 905.87 1188.87 905.87 1188.87 903.87 1188.87 13.97 1190.87 15.97 998.09 15.97 1000.09 13.97 1000.09 903.88 1000.09 905.88 998.09 905.88 834.85 905.88 832.85 905.88 832.85 903.88 832.85 13.97 834.85 15.97 676.28 15.97 678.28 13.97 678.28 903.87 678.28 905.87 676.28 905.87 545.69 905.87 543.69 905.87 543.69 903.87 543.69 13.96 545.69 15.96 416.65 15.96 418.65 13.96 418.65 903.93 418.65 905.93 416.65 905.93 310.93 905.93 308.93 905.93 308.93 903.93 308.93 13.87 310.93 15.87 192.78 15.87 194.78 13.87 194.78 903.9 194.78 905.9 192.78 905.9 105.72 905.9 103.72 905.9 103.72 903.9 103.67 681.42 103.82 458.94 104.38 13.97 105.72 15.31 18.66 15.2 19.88 14 0 903.86"/><path class="cls-1" d="M-603.24-13.36l10-9.32,10-9.24c3.36-3.07,6.6-6.27,10.11-9.17s7.06-5.74,10.84-8.34l.13.15c-3.05,3.42-6.32,6.59-9.65,9.7s-6.9,5.92-10.37,8.86l-10.44,8.79-10.51,8.72Z" transform="translate(604.72 63.33)"/><path class="cls-1" d="M-603.24,107.77-502.1,33c16.86-12.45,33.66-25,50.66-37.25s34-24.45,51.3-36.35l.12.16c-16.58,12.82-33.42,25.3-50.24,37.81s-33.91,24.65-50.89,36.92l-102,73.6Z" transform="translate(604.72 63.33)"/><path class="cls-1" d="M-603.23,219l208-134.81,52-33.72,52.09-33.56c34.83-22.22,69.63-44.47,104.67-66.36l.11.17C-220.8-26.42-255.45-3.92-290.08,18.6l-52.1,33.55-52.19,33.4L-603.12,219.18Z" transform="translate(604.72 63.33)"/><polygon class="cls-1" points="1.49 403.47 323.22 208.08 403.64 159.22 484.16 110.52 564.87 62.13 605.23 37.93 645.67 13.89 645.78 14.06 605.7 38.71 565.53 63.22 485.2 112.23 404.67 160.92 324.05 209.45 1.59 403.64 1.49 403.47"/><polygon class="cls-1" points="1.49 522.13 460.45 267.4 575.18 203.7 690 140.16 805 76.95 862.5 45.34 920.09 13.89 920.18 14.06 862.94 46.14 805.62 78.07 690.97 141.91 576.14 205.43 461.23 268.8 1.59 522.31 1.49 522.13"/><polygon class="cls-1" points="1.5 640.8 619.93 326.72 929.22 169.81 1084.07 91.77 1161.49 52.75 1239 13.89 1239.09 14.06 1161.9 53.56 1084.64 92.91 930.12 171.59 620.65 328.14 1.59 640.98 1.5 640.8"/><polygon class="cls-1" points="1.5 756.99 792.22 395.42 1187.65 214.76 1385.55 124.86 1484.5 79.91 1583.53 35.12 1583.61 35.3 1484.88 80.74 1386.08 126.02 1188.48 216.59 792.89 396.87 1.58 757.17 1.5 756.99"/><polygon class="cls-1" points="1.5 885.54 792.25 564.74 1187.69 404.49 1385.57 324.78 1484.52 284.94 1583.53 245.25 1583.61 245.43 1484.86 285.78 1386.05 325.97 1188.44 406.34 792.86 566.23 1.58 885.72 1.5 885.54"/><polygon class="cls-1" points="322.77 903.84 952.93 690.07 1268.06 583.33 1425.77 530.39 1504.62 503.93 1583.54 477.63 1583.6 477.82 1504.91 504.79 1426.18 531.61 1268.69 585.22 953.44 691.59 322.83 904.03 322.77 903.84"/><polygon class="cls-1" points="801.44 903.77 1192.3 792.62 1290.01 764.82 1387.77 737.19 1485.63 709.92 1534.56 696.28 1583.54 682.82 1583.59 683.01 1534.81 697.16 1485.98 711.15 1388.32 739.11 1290.55 766.72 1192.74 794.16 801.5 903.96 801.44 903.77"/><path class="cls-1" d="M800.1,840.44l44.58-12.36,44.6-12.26c14.86-4.1,29.7-8.31,44.63-12.17s29.87-7.67,44.91-11.11l0,.19c-14.74,4.55-29.6,8.68-44.44,12.85s-29.82,7.89-44.74,11.78l-44.76,11.69-44.78,11.59Z" transform="translate(604.72 63.33)"/><polygon class="cls-1" points="0 892 17.43 2.08 17.46 0.89 18.66 0.89 105.72 0.78 107.05 0.78 107.05 2.11 107.61 447.07 107.77 669.55 107.72 892.03 105.72 890.03 192.78 890.03 190.78 892.03 190.78 2 190.78 0 192.78 0 310.93 0 312.93 0 312.93 2 312.93 892.07 310.93 890.07 416.65 890.07 414.65 892.07 414.65 2.1 414.65 0.1 416.65 0.1 545.69 0.1 547.69 0.1 547.69 2.1 547.69 892 545.69 890 676.28 890 674.28 892 674.28 2.1 674.28 0.1 676.28 0.1 834.85 0.1 836.85 0.1 836.85 2.1 836.85 892.01 834.85 890.01 998.09 890.01 996.09 892.01 996.09 2.11 996.09 0.11 998.09 0.11 1190.87 0.11 1192.87 0.11 1192.87 2.11 1192.87 892 1190.87 890 1392.98 890 1390.98 892 1391 447.06 1391.55 2.11 1391.56 0.68 1392.98 0.69 1571.7 0.91 1572.9 0.91 1572.9 2.11 1571.7 892 1570.5 2.11 1571.7 3.31 1392.98 3.54 1394.4 2.11 1394.96 447.06 1394.98 892 1394.98 894 1392.98 894 1190.87 894 1188.87 894 1188.87 892 1188.87 2.11 1190.87 4.11 998.09 4.11 1000.09 2.11 1000.09 892.01 1000.09 894.01 998.09 894.01 834.85 894.01 832.85 894.01 832.85 892.01 832.85 2.1 834.85 4.11 676.28 4.11 678.28 2.1 678.28 892 678.28 894 676.28 894 545.69 894 543.69 894 543.69 892 543.69 2.1 545.69 4.1 416.65 4.1 418.65 2.1 418.65 892.07 418.65 894.07 416.65 894.07 310.93 894.07 308.93 894.07 308.93 892.07 308.93 2 310.93 4 192.78 4 194.78 2 194.78 892.03 194.78 894.03 192.78 894.03 105.72 894.03 103.72 894.03 103.72 892.03 103.67 669.55 103.82 447.07 104.38 2.11 105.72 3.44 18.66 3.33 19.88 2.14 0 892"/><path class="cls-1" d="M-603.24-25.23l10-9.31,10-9.24c3.36-3.07,6.6-6.28,10.11-9.17s7.06-5.75,10.84-8.34l.13.15c-3.05,3.42-6.32,6.58-9.65,9.69s-6.9,5.93-10.37,8.87l-10.44,8.79-10.51,8.71Z" transform="translate(604.72 63.33)"/><path class="cls-1" d="M-603.24,95.9-502.1,21.17c16.86-12.44,33.66-25,50.66-37.24s34-24.46,51.3-36.36l.12.17c-16.58,12.82-33.42,25.3-50.24,37.8s-33.91,24.65-50.89,36.93l-102,73.6Z" transform="translate(604.72 63.33)"/><path class="cls-1" d="M-603.23,207.15l208-134.81,52-33.72,52.09-33.56c34.83-22.22,69.63-44.47,104.67-66.36l.11.17c-34.42,22.85-69.07,45.34-103.7,67.87l-52.1,33.54-52.19,33.4L-603.12,207.32Z" transform="translate(604.72 63.33)"/><polygon class="cls-1" points="1.49 391.61 323.22 196.22 403.64 147.36 484.16 98.65 564.87 50.26 605.23 26.07 645.67 2.02 645.78 2.2 605.7 26.85 565.53 51.36 485.2 100.36 404.67 149.05 324.05 197.59 1.59 391.78 1.49 391.61"/><polygon class="cls-1" points="1.49 510.27 460.45 255.53 575.18 191.84 690 128.3 805 65.08 862.5 33.48 920.09 2.02 920.18 2.2 862.94 34.27 805.62 66.2 690.97 130.05 576.14 193.57 461.23 256.93 1.59 510.44 1.49 510.27"/><polygon class="cls-1" points="1.5 628.93 619.93 314.85 929.22 157.95 1084.07 79.9 1161.49 40.88 1239 2.02 1239.09 2.2 1161.9 41.7 1084.64 81.05 930.12 159.73 620.65 316.28 1.59 629.11 1.5 628.93"/><polygon class="cls-1" points="1.5 745.12 792.22 383.55 1187.65 202.9 1385.55 112.99 1484.5 68.04 1583.53 23.25 1583.61 23.43 1484.88 68.87 1386.08 114.16 1188.48 204.72 792.89 385 1.58 745.3 1.5 745.12"/><polygon class="cls-1" points="1.5 873.67 792.25 552.88 1187.69 392.62 1385.57 312.92 1484.52 273.07 1583.53 233.38 1583.61 233.57 1484.86 273.92 1386.05 314.11 1188.44 394.48 792.86 554.36 1.58 873.86 1.5 873.67"/><polygon class="cls-1" points="322.77 891.97 952.93 678.2 1268.06 571.46 1425.77 518.53 1504.62 492.06 1583.54 465.76 1583.6 465.95 1504.91 492.93 1426.18 519.74 1268.69 573.36 953.44 679.72 322.83 892.16 322.77 891.97"/><polygon class="cls-1" points="635.97 940.02 1109.57 804.81 1227.96 771 1346.4 737.35 1464.95 704.07 1524.22 687.43 1583.54 670.95 1583.6 671.14 1524.47 688.3 1465.3 705.3 1346.95 739.28 1228.5 772.9 1110 806.35 636.03 940.22 635.97 940.02"/><path class="cls-1" d="M800.1,828.58l44.58-12.36L889.28,804c14.86-4.1,29.7-8.3,44.63-12.17s29.87-7.67,44.91-11.1l0,.19c-14.74,4.55-29.6,8.68-44.44,12.84s-29.82,7.9-44.74,11.79l-44.76,11.68-44.78,11.59Z" transform="translate(604.72 63.33)"/></svg>