<svg xmlns="http://www.w3.org/2000/svg" viewBox="0 0 181.09 166.9"><title>black</title><g id="Layer_2" data-name="Layer 2"><g id="Layer_1_Image" data-name="Layer 1 Image"><path d="M181.09,109.34c-.09.17-.25.32-.28.49-1,5.52-4.09,9.51-8.77,12.37a47.36,47.36,0,0,1-14.35,5.64,66.06,66.06,0,0,1-11,1.58c-1.06.06-2.11.14-3.11.21a7,7,0,0,1-.46-5.55,5,5,0,0,1,2-2.2,13.35,13.35,0,0,1,1.69-.85,13.8,13.8,0,0,0,8.11-9.82,23.2,23.2,0,0,0,.06-11,14.45,14.45,0,0,0-7.3-9.65,32.74,32.74,0,0,0-13.07-4.07c-1.31-.12-2.64-.11-4-.12q-23.62,0-47.24-.06c-6.61,0-13.22,0-19.84.06l-27.2.08c-1,0-2-.06-3,0-2.59.18-3.49,1.1-3.52,3.68,0,2.08.12,4.16.13,6.23,0,3.91,0,7.81,0,11.71,0,3.28,0,6.55,0,9.83a18,18,0,0,0,.3,2.62,3.45,3.45,0,0,0,2.24,2.83c1.17.45,2.39.76,3.59,1.13.48.15,1,.27,1.51.42a22.53,22.53,0,0,1,.07,4.43c-.43.07-.78.16-1.13.19s-.88,0-1.32,0H2.91c-.75,0-1.5,0-2.31,0a22.57,22.57,0,0,1-.19-4.64L2,124.45c1-.24,2.09-.45,3.11-.76a2.9,2.9,0,0,0,2.17-2.58,22.37,22.37,0,0,0,.25-2.82q0-34.77,0-69.53a24.19,24.19,0,0,0-.24-2.82A3,3,0,0,0,5,43.24c-1.09-.32-2.21-.51-3.31-.76-.37-.08-.73-.14-1.12-.21-.8-1.47-.51-2.94-.3-4.54.52-.06,1-.15,1.48-.16H35.35l2.07,0a16.88,16.88,0,0,1,.43,4.46c-1,.27-1.91.48-2.8.76s-1.91.63-2.84,1a3.13,3.13,0,0,0-1.89,2.43A19.3,19.3,0,0,0,30,49.65c0,8.18,0,16.37,0,24.56,0,.31,0,.61.07,1a4.29,4.29,0,0,0,.91.2H42.26a5.5,5.5,0,0,0,.81-.15c0-.53.1-1,.1-1.51q0-26.26,0-52.53a36.91,36.91,0,0,0-.38-4.69,5.53,5.53,0,0,0-4.3-5c-1.39-.37-2.82-.64-4.24-.89-1.11-.2-2.25-.28-3.37-.44-.55-.08-1.09-.21-1.61-.31a61.17,61.17,0,0,1,0-9.78c.33-.05.68-.13,1-.15s.88,0,1.32,0H82.21a9.26,9.26,0,0,1,.25,3.44c.05,1.14,0,2.27,0,3.41a27,27,0,0,1-.09,3.45c-.58,0-1.07.11-1.55.12-1.77,0-3.53,0-5.29,0a11.83,11.83,0,0,0-1.88.16A5.74,5.74,0,0,0,68.5,16a13.73,13.73,0,0,0-.07,1.7q0,12.84-.08,25.69,0,4.64,0,9.26,0,10.39.08,20.78c0,.55.07,1.1.11,1.74.4,0,.7.1,1,.1h43a9.57,9.57,0,0,0,.2-1.17c0-.57,0-1.14,0-1.7q0-24,0-48c0-1.76,0-3.53-.09-5.29a27.11,27.11,0,0,0-.63-4.28,4.57,4.57,0,0,0-3.35-3.51,18.6,18.6,0,0,0-3.14-.64c-1.5-.16-3-.19-4.51-.29-.69-.05-1.37-.13-2-.2-.38-1.31-.48-6.68-.2-9.92a8,8,0,0,1,1-.2c.44,0,.88,0,1.32,0h48.75c.75,0,1.49,0,2.33.05a19.6,19.6,0,0,1,.13,3.47q0,1.61,0,3.21a25.4,25.4,0,0,1-.1,3.46,11.76,11.76,0,0,1-1.34.14c-1.45,0-2.9,0-4.34,0a24.93,24.93,0,0,0-3.57.32,5.62,5.62,0,0,0-5,5,22.45,22.45,0,0,0-.35,3.75q-.07,17.58-.08,35.15,0,9,0,17.95c0,.68,0,1.37.05,2.14a24,24,0,0,0,9.75.93,7.29,7.29,0,0,0,5.35-3.81,20.65,20.65,0,0,0,2.49-6.5,18.86,18.86,0,0,0-.8-10.77,16.32,16.32,0,0,0-7-8.38c-.87-.51-1.73-1-2.59-1.56a3.82,3.82,0,0,1-2-3.63,17.19,17.19,0,0,1,.19-3.47,7.56,7.56,0,0,1,1.12-.08,95.43,95.43,0,0,1,15.34,2,33.11,33.11,0,0,1,14.37,6.79,36,36,0,0,1,4,4,12.26,12.26,0,0,1,2.94,6c0,.18.19.33.28.49V64a1.51,1.51,0,0,0-.28.49,12.63,12.63,0,0,1-2,5A22.75,22.75,0,0,1,169,78.07,52.56,52.56,0,0,1,161.2,81c-2.58.78-5.18,1.52-7.77,2.29a14.13,14.13,0,0,0-1.31.55l2.24.59a53.81,53.81,0,0,1,5.28,1.39c3.47,1.3,6.89,2.75,10.3,4.2a23,23,0,0,1,5,3,14.16,14.16,0,0,1,5.82,9.14c0,.16.2.3.3.45Z"/><path d="M82.21,166.9H29.84a3.22,3.22,0,0,1-.7-.14,51.27,51.27,0,0,1,0-10.07c.45,0,.94-.11,1.43-.11,1.95,0,3.9,0,5.85,0,.44,0,.89,0,1.32,0a4.78,4.78,0,0,0,4.69-3.94,38.18,38.18,0,0,0,.68-5.23c.1-1.13.08-2.27.08-3.4V95.22c0-.75,0-1.49,0-2.08.19-.19.22-.24.28-.27a.35.35,0,0,1,.17-.06l23.43-.06c.31,0,.62,0,1,.09a6.78,6.78,0,0,1,.22,1.07c0,.57,0,1.13,0,1.7q0,25.13,0,50.26a26.41,26.41,0,0,0,.42,5.82c0,.13,0,.25.07.38.65,2.94,2.17,4.32,5.22,4.51,1.75.11,3.52,0,5.28,0,.82,0,1.63,0,2.45.1a1.51,1.51,0,0,1,.49.21,77.56,77.56,0,0,1,.17,9.25A3.41,3.41,0,0,1,82.21,166.9Z"/><path d="M98.68,156.69a14.82,14.82,0,0,1,3.19-.12,32.35,32.35,0,0,0,5.65-.31c.43-.08.86-.15,1.29-.27a4.44,4.44,0,0,0,3.36-3.47,20.11,20.11,0,0,0,.46-3.36c.09-1.76.08-3.52.08-5.29q0-24.16,0-48.35c0-.74,0-1.49,0-2.27a3.9,3.9,0,0,1,2.08-.26h18.89c.82,0,1.64,0,2.45,0,.38,0,.75.06,1.21.1a8.44,8.44,0,0,1,.19,1.08c0,.56,0,1.13,0,1.7q0,22.84,0,45.7c0,2,0,3.91.08,5.85a24.93,24.93,0,0,0,.45,3.75,5.84,5.84,0,0,0,5.21,5c1.42.23,2.88.3,4.32.4,1.06.08,2.14.06,3.2.12.43,0,.86.12,1.4.2a62.5,62.5,0,0,1,.27,9.75,3.54,3.54,0,0,1-.66.18H99.18a2.29,2.29,0,0,1-.58-.17,3.75,3.75,0,0,1-.15-.71c0-2.9,0-5.79,0-8.69A2.06,2.06,0,0,1,98.68,156.69Z"/><path d="M73.75,129.25c-.12-1.53-.23-3-.36-4.64a14,14,0,0,1,1.55-.17h30.2a5.47,5.47,0,0,1,2.13.19,26.38,26.38,0,0,1,.15,4.48,3,3,0,0,1-.26.28.41.41,0,0,1-.19,0l-30.76.06c-.62,0-1.25,0-1.88-.05A2.65,2.65,0,0,1,73.75,129.25Z"/><path d="M73.78,42.34c-.12-1.63-.22-3.07-.33-4.47.67-.58,1.4-.35,2.06-.35q12.64,0,25.3,0h5.09c.43,0,.86.05,1.35.08a7.52,7.52,0,0,1,.17,2.29c0,.75,0,1.5,0,2.16a2.58,2.58,0,0,1-1.93.37c-5.23,0-10.45,0-15.67,0-4.66,0-9.32,0-14,0C75.23,42.41,74.61,42.37,73.78,42.34Z"/></g></g></svg>