<svg xmlns="http://www.w3.org/2000/svg" viewBox="0 0 181.51 167.01"><defs><style>.cls-1{fill:#fff;}</style></defs><title>Asset 1</title><g id="Layer_2" data-name="Layer 2"><g id="Layer_1_Image" data-name="Layer 1 Image"><path class="cls-1" d="M.51,124.79c.82-.15,1.62-.29,2.4-.47s1.59-.39,2.36-.65a2.78,2.78,0,0,0,1.92-2.15A12.49,12.49,0,0,0,7.43,120c.05-.63.05-1.26.05-1.89q0-34.58,0-69.15a22.48,22.48,0,0,0-.09-2.46,3.41,3.41,0,0,0-2.95-3.42c-.67-.18-1.36-.29-2-.43L.53,42.32a6.19,6.19,0,0,1-.21-4.5,8.53,8.53,0,0,1,1.1-.15q17.38,0,34.77,0c.42,0,.85.07,1.37.12A31.26,31.26,0,0,1,37.84,42a5.36,5.36,0,0,1-1.94.68c-1,.32-2.06.58-3.07.94a3.86,3.86,0,0,0-2.66,3.56A25.79,25.79,0,0,0,30,49.8Q30,61.89,30,74c0,.43.06.87.1,1.36a18.06,18.06,0,0,0,4.33.19c1.39,0,2.77,0,4.16,0H43a10,10,0,0,0,.22-1.19c0-.5,0-1,0-1.51q0-25.12,0-50.26c0-1.7-.18-3.39-.27-5.09,0-.12,0-.25,0-.37a6,6,0,0,0-5-5.65c-1.65-.37-3.33-.63-5-.91-1.23-.2-2.47-.34-3.65-.51A60.16,60.16,0,0,1,29.14.23a9.65,9.65,0,0,1,1-.21,10.63,10.63,0,0,1,1.13,0H80.23l2.12,0a26.55,26.55,0,0,1,.19,5.16c0,1.69.07,3.38-.08,5.19a11.25,11.25,0,0,1-1.15.13c-2,0-4,0-6,0a10.35,10.35,0,0,0-2.42.3,5.38,5.38,0,0,0-4.15,4.41c-.17.8-.19,1.63-.28,2.44,0,.12,0,.25,0,.38q0,19.74-.07,39.48c0,5.29,0,10.58.08,15.87,0,.55.06,1.11.09,1.64a2.93,2.93,0,0,0,.64.2q21.45,0,42.89,0a2,2,0,0,0,.56-.18,5.55,5.55,0,0,0,.17-2.22q0-15.69,0-31.37c0-5.67,0-11.34,0-17,0-2.2-.11-4.4-.24-6.6a14.73,14.73,0,0,0-.44-2.79,4.77,4.77,0,0,0-3.59-3.75,37.34,37.34,0,0,0-4.46-.73c-.87-.11-1.76,0-2.65-.09-.56,0-1.13-.07-1.69-.15a6.72,6.72,0,0,1-.93-.27,8.4,8.4,0,0,1-.11-.95c0-2.83,0-5.67,0-8.5,0-.11.11-.21.24-.44.28,0,.64-.1,1-.12s.63,0,.94,0H150c.68,0,1.36,0,2.1.07a27.23,27.23,0,0,1,.19,5.15c0,1.64,0,3.27,0,5a6.05,6.05,0,0,1-1.16.23c-1.7,0-3.4,0-5.1,0a21.1,21.1,0,0,0-3.55.41A5.43,5.43,0,0,0,138.22,15a15.23,15.23,0,0,0-.49,4.3q-.07,19.84-.15,39.67c0,4.73,0,9.45,0,14.17,0,.5,0,1,.07,1.44.18.13.27.24.38.27a25.46,25.46,0,0,0,8.58,1,7.68,7.68,0,0,0,6.32-4.22,21,21,0,0,0,2.72-10.1,18.4,18.4,0,0,0-1.53-7.72,16.16,16.16,0,0,0-6.47-7.42l-2.75-1.67a4,4,0,0,1-2-3.79,8.44,8.44,0,0,1,.34-3.4,3.29,3.29,0,0,1,.71-.09,102.21,102.21,0,0,1,16.44,2.25,32.73,32.73,0,0,1,13.77,6.78,28.58,28.58,0,0,1,3.69,3.77c4.17,5.29,4.73,11.11,2.09,17.22a20.81,20.81,0,0,1-9,9.64,41.91,41.91,0,0,1-9.07,3.72c-2.58.8-5.19,1.52-7.78,2.29-.53.15-1,.36-1.81.63.59.23.91.4,1.26.49,1.35.32,2.73.51,4.05.93a83,83,0,0,1,15.13,6.3,19.86,19.86,0,0,1,2.81,1.91,15.17,15.17,0,0,1,5.82,11.81c.19,7.67-3.13,13.45-9.72,17.34A50.25,50.25,0,0,1,155,128.47a76.81,76.81,0,0,1-9.93,1.14c-.55,0-1.11,0-1.65,0a8.33,8.33,0,0,1-.65-3,4.78,4.78,0,0,1,2.53-4.71,10.65,10.65,0,0,1,1.35-.68A13.93,13.93,0,0,0,155,110.73a22.75,22.75,0,0,0-.15-10.85,14.66,14.66,0,0,0-7.51-9.49,32.74,32.74,0,0,0-11.24-3.72,46.26,46.26,0,0,0-5.65-.24q-23-.11-45.91-.15c-8.94,0-17.88.1-26.82.14-7.81,0-15.62,0-23.43,0a12.81,12.81,0,0,0-2.06.14A2.55,2.55,0,0,0,30,88.8a10.56,10.56,0,0,0-.17,2.44c.36,5,.28,10.07.28,15.1,0,3.47-.06,6.93-.07,10.39,0,.94.05,1.89.1,2.83a4.22,4.22,0,0,0,3.24,4.15c1,.3,2.06.58,3.09.86l1.13.29a17.64,17.64,0,0,1,0,4.41,1.73,1.73,0,0,1-.25.21.34.34,0,0,1-.17.05c-.51,0-1,.06-1.51.06l-34.58,0a1.12,1.12,0,0,1-.36-.09c-.06,0-.1-.08-.27-.22A18.12,18.12,0,0,1,.51,124.79Z"/><path class="cls-1" d="M29,167c0-3.55,0-6.86,0-10.25.7-.06,1.19-.13,1.68-.13,2,0,3.91-.07,5.86,0,3.35.14,5.82-1.18,6.26-5.5.23-2.31.45-4.64.46-7q.06-24.37,0-48.74v-2.2a3.2,3.2,0,0,1,2.12-.33c6.93,0,13.86,0,20.79,0H68.1A9.11,9.11,0,0,1,68.32,94c0,.57,0,1.14,0,1.7q0,25,0,50.07c0,1.76.18,3.52.34,5.27a10.2,10.2,0,0,0,.43,2A4.75,4.75,0,0,0,73,156.49a20.61,20.61,0,0,0,6,.15,9.06,9.06,0,0,1,3.33.28,59.91,59.91,0,0,1,0,9.94c-.31,0-.66.12-1,.14s-.88,0-1.32,0H31.45C30.71,167,30,167,29,167Z"/><path class="cls-1" d="M113,93h24.35c.08.47.18.82.2,1.17,0,.57,0,1.14,0,1.7q0,23.43,0,46.84c0,2.14.12,4.28.25,6.41a15.35,15.35,0,0,0,.44,2.6,5.63,5.63,0,0,0,4.3,4.31,22.58,22.58,0,0,0,5,.55c1.5.06,3,.18,4.59.28a63.47,63.47,0,0,1,.39,9.79,2.65,2.65,0,0,1-.68.25l-52.51,0a3.72,3.72,0,0,1-.68-.13,55.51,55.51,0,0,1,0-10,3.18,3.18,0,0,1,1.83-.22c1.88,0,3.77,0,5.66-.11A12.53,12.53,0,0,0,109,156a4.28,4.28,0,0,0,3.15-3.21,12.32,12.32,0,0,0,.42-2.4c.12-1.89.23-3.77.23-5.66q0-24.65,0-49.29A6.29,6.29,0,0,1,113,93Z"/><path class="cls-1" d="M73.86,129.59a26.68,26.68,0,0,1-.33-4.94,7.21,7.21,0,0,1,1-.2c4.52-.21,31.16-.07,32.66.18a17.45,17.45,0,0,1,.34,4.72,5.51,5.51,0,0,1-1.07.22c-1.32,0-2.64,0-4,0H73.86Z"/><path class="cls-1" d="M73.82,42.38a21.92,21.92,0,0,1-.21-4.64c1.41-.26,16.77-.36,32-.23.55,0,1.1.07,1.75.11a19.28,19.28,0,0,1,.06,4.48,2.83,2.83,0,0,1-1.91.32H76.06C75.38,42.42,74.69,42.4,73.82,42.38Z"/></g></g></svg>